<svg xmlns="http://www.w3.org/2000/svg" viewBox="0 0 560 320" fill="none">
  <rect width="560" height="320" rx="18" fill="#e8edf3"/>
  <path d="M80 200c40-60 100-90 180-80 50 6 90 30 120 70 30-20 70-30 110-10 30 14 50 40 60 70H80z" fill="#c5d0de"/>
  <path d="M200 120c30-40 80-50 130-30 40 16 70 50 80 90-35-5-70 0-100 20-30-35-70-55-110-80z" fill="#9aafc4"/>
  <circle cx="248" cy="158" r="18" fill="#f5a623" stroke="#1a2b42" stroke-width="3"/>
  <circle cx="248" cy="158" r="32" fill="none" stroke="#f5a623" stroke-width="2" opacity="0.5"/>
  <text x="248" y="210" text-anchor="middle" fill="#1a2b42" font-family="Arial,sans-serif" font-size="14" font-weight="700">Москва</text>
  <text x="280" y="36" text-anchor="middle" fill="#6b7c93" font-family="Arial,sans-serif" font-size="13">Карта России · заглушка</text>
</svg>